<svg width="236" height="53" viewBox="0 0 236 53" fill="none" xmlns="http://www.w3.org/2000/svg">
<path d="M35.3791 19.798C34.1751 18.93 33.1391 18.3 32.2711 17.908C31.4031 17.488 30.3951 17.278 29.2471 17.278C26.9511 17.278 24.9771 17.866 23.3251 19.042C22.0651 19.966 21.1271 21.17 20.5111 22.654C19.8951 24.138 19.5871 25.804 19.5871 27.652C19.5871 29.416 19.9931 30.97 20.8051 32.314C21.6171 33.63 22.6671 34.638 23.9551 35.338C25.2431 36.038 26.5871 36.388 27.9871 36.388C29.3871 36.388 30.5911 36.178 31.5991 35.758C32.6351 35.31 33.4611 34.736 34.0771 34.036C35.0291 32.832 35.5051 31.236 35.5051 29.248C35.5051 28.968 35.2811 28.772 34.8331 28.66C34.3851 28.548 33.7411 28.492 32.9011 28.492L29.8771 28.534C29.0651 28.534 28.4211 28.38 27.9451 28.072C27.4691 27.764 27.2311 27.372 27.2311 26.896C27.2311 26.224 27.4551 25.734 27.9031 25.426C28.3511 25.09 28.9531 24.922 29.7091 24.922C30.6051 24.922 31.8091 24.978 33.3211 25.09C34.8331 25.202 35.9251 25.258 36.5971 25.258C37.5771 25.258 38.3611 25.566 38.9491 26.182C39.5651 26.798 39.8731 27.694 39.8731 28.87C39.8731 29.962 39.6351 31.236 39.1591 32.692C38.6831 34.148 38.0111 35.45 37.1431 36.598C36.3031 37.718 35.0571 38.572 33.4051 39.16C31.7811 39.72 29.9751 40 27.9871 40C26.3351 40 24.7391 39.734 23.1991 39.202C21.6591 38.67 20.3711 37.928 19.3351 36.976C18.0471 35.772 17.0251 34.344 16.2691 32.692C15.5411 31.012 15.1771 29.346 15.1771 27.694C15.1771 25.286 15.7371 22.948 16.8571 20.68C18.0051 18.384 19.5451 16.606 21.4771 15.346C22.3171 14.786 23.4931 14.324 25.0051 13.96C26.5171 13.596 27.9031 13.414 29.1631 13.414C31.1231 13.414 32.8451 13.722 34.3291 14.338C35.8131 14.926 36.9471 15.78 37.7311 16.9C38.0671 17.404 38.2351 17.852 38.2351 18.244C38.2351 18.692 38.0391 19.112 37.6471 19.504C37.2551 19.896 36.8631 20.092 36.4711 20.092C36.3031 20.092 36.1071 20.064 35.8831 20.008C35.6591 19.952 35.4911 19.882 35.3791 19.798ZM44.0072 31.096C44.0072 30.032 44.2032 28.968 44.5952 27.904C44.9872 26.812 45.5052 25.818 46.1492 24.922C46.7932 24.026 47.8152 23.298 49.2152 22.738C50.6152 22.15 51.8612 21.856 52.9532 21.856C54.0732 21.856 55.2072 22.01 56.3552 22.318C57.5312 22.626 58.3432 23.102 58.7912 23.746C59.8272 25.202 60.3452 26.63 60.3452 28.03C60.3452 28.786 60.1772 29.43 59.8412 29.962C59.5332 30.494 59.0852 31.068 58.4972 31.684C58.0212 32.188 57.2652 32.524 56.2292 32.692C55.2212 32.86 54.2132 32.944 53.2052 32.944C52.5612 32.944 51.7772 32.888 50.8532 32.776C49.9292 32.636 49.0332 32.468 48.1652 32.272C48.2212 32.832 48.3612 33.378 48.5852 33.91C48.8092 34.442 49.0752 34.848 49.3832 35.128C49.9432 35.66 50.5172 35.996 51.1052 36.136C51.7212 36.276 52.5052 36.346 53.4572 36.346C54.4652 36.346 55.4032 36.178 56.2712 35.842C56.9712 35.59 57.5452 35.464 57.9932 35.464C58.5252 35.464 58.9312 35.632 59.2112 35.968C59.4912 36.276 59.6312 36.682 59.6312 37.186C59.6312 37.886 59.2252 38.46 58.4132 38.908C57.6012 39.356 56.6632 39.692 55.5992 39.916C54.5632 40.112 53.7232 40.21 53.0792 40.21C51.7632 40.21 50.4892 39.972 49.2572 39.496C48.0252 39.02 47.0032 38.348 46.1912 37.48C45.5192 36.696 44.9872 35.758 44.5952 34.666C44.2032 33.546 44.0072 32.356 44.0072 31.096ZM53.1632 25.426C52.5472 25.426 51.9312 25.552 51.3152 25.804C50.6992 26.028 50.1952 26.35 49.8032 26.77C49.2992 27.302 48.9492 27.736 48.7532 28.072C48.5852 28.38 48.4732 28.814 48.4172 29.374C49.1172 29.598 50.5732 29.71 52.7852 29.71C53.9892 29.71 54.9132 29.528 55.5572 29.164C56.2292 28.8 56.5652 28.324 56.5652 27.736C56.5652 27.148 56.2012 26.616 55.4732 26.14C54.7452 25.664 53.9752 25.426 53.1632 25.426ZM64.4008 25.468C64.0088 25.412 63.6868 25.244 63.4348 24.964C63.2108 24.684 63.0988 24.348 63.0988 23.956C63.0988 23.76 63.1408 23.55 63.2248 23.326C63.3368 23.102 63.4908 22.906 63.6868 22.738C64.0508 22.374 65.0308 22.192 66.6268 22.192C66.8508 21.1 66.9628 19.994 66.9628 18.874C66.9628 18.454 66.9488 18.09 66.9208 17.782C66.8928 17.474 66.8788 17.236 66.8788 17.068C66.8788 16.452 67.1028 15.99 67.5508 15.682C68.0268 15.374 68.5588 15.22 69.1468 15.22C69.8748 15.22 70.3648 15.402 70.6168 15.766C70.8968 16.13 71.0368 16.802 71.0368 17.782C71.0368 19.238 70.9108 20.666 70.6588 22.066C71.1068 22.066 71.7228 22.038 72.5068 21.982C73.5708 21.926 74.3408 21.898 74.8168 21.898C75.2928 21.898 75.6988 22.024 76.0348 22.276C76.3988 22.5 76.5808 22.822 76.5808 23.242C76.5808 24.334 76.0908 24.978 75.1108 25.174C74.0748 25.426 72.4648 25.58 70.2808 25.636C70.1968 26.728 70.1548 27.918 70.1548 29.206C70.1548 31.222 70.2808 32.874 70.5328 34.162C70.7008 35.058 70.9808 35.716 71.3728 36.136C71.7928 36.528 72.4088 36.724 73.2208 36.724C73.6968 36.724 74.1868 36.598 74.6908 36.346C75.0268 36.15 75.3348 36.052 75.6148 36.052C76.0068 36.052 76.2868 36.178 76.4548 36.43C76.6508 36.682 76.7488 37.018 76.7488 37.438C76.7488 38.222 76.3288 38.88 75.4888 39.412C74.6488 39.916 73.5708 40.168 72.2548 40.168C71.4428 40.168 70.6168 39.972 69.7768 39.58C68.9648 39.188 68.2788 38.698 67.7188 38.11C67.6348 38.026 67.4808 37.704 67.2568 37.144C67.0328 36.584 66.8368 35.982 66.6688 35.338C66.3888 34.022 66.2488 32.174 66.2488 29.794C66.2488 28.758 66.3048 27.372 66.4168 25.636L64.4008 25.468ZM109.365 32.776C109.365 34.092 109.085 35.156 108.525 35.968C107.965 36.78 106.999 37.578 105.627 38.362C104.703 38.922 103.639 39.356 102.435 39.664C101.231 39.944 100.013 40.084 98.7814 40.084C98.0254 40.084 97.1434 39.944 96.1354 39.664C95.1554 39.356 94.3574 39.062 93.7414 38.782L93.0274 38.152C91.7674 37.116 90.8854 36.29 90.3814 35.674C89.9054 35.03 89.6674 34.246 89.6674 33.322C89.6674 32.594 89.8354 32.048 90.1714 31.684C90.5074 31.32 91.0534 31.138 91.8094 31.138C92.2014 31.138 92.5654 31.264 92.9014 31.516C93.2374 31.768 93.5314 32.118 93.7834 32.566C94.4834 33.798 95.3094 34.708 96.2614 35.296C97.2414 35.856 98.3894 36.136 99.7054 36.136C100.937 36.136 102.183 35.758 103.443 35.002C104.479 34.358 104.997 33.728 104.997 33.112C104.997 32.02 104.507 31.11 103.527 30.382C102.575 29.654 101.203 28.996 99.4114 28.408C98.3194 28.016 96.6814 27.288 94.4974 26.224C93.0134 25.496 91.9074 24.6 91.1794 23.536C90.4514 22.472 90.0874 21.352 90.0874 20.176C90.0874 19.112 90.4514 18.076 91.1794 17.068C91.9354 16.032 92.8454 15.262 93.9094 14.758C94.4694 14.478 95.3654 14.184 96.5974 13.876C97.8294 13.54 98.7534 13.372 99.3694 13.372C100.517 13.372 101.511 13.512 102.351 13.792C103.191 14.044 104.017 14.408 104.829 14.884C106.061 15.584 106.971 16.214 107.559 16.774C108.147 17.334 108.441 18.034 108.441 18.874C108.441 19.378 108.245 19.826 107.853 20.218C107.489 20.61 106.845 20.806 105.921 20.806C105.697 20.806 105.473 20.708 105.249 20.512C105.025 20.316 104.745 20.022 104.409 19.63C103.961 19.042 103.527 18.65 103.107 18.454C102.995 18.426 102.533 18.244 101.721 17.908C100.937 17.572 99.9574 17.404 98.7814 17.404C97.6614 17.404 96.6674 17.67 95.7994 18.202C94.9314 18.706 94.4974 19.448 94.4974 20.428C94.4974 21.408 95.3794 22.206 97.1434 22.822C99.0194 23.55 100.573 24.18 101.805 24.712C103.065 25.244 104.283 25.874 105.459 26.602C106.803 27.414 107.783 28.268 108.399 29.164C109.043 30.06 109.365 31.264 109.365 32.776ZM113.335 25.384C112.943 25.328 112.621 25.174 112.369 24.922C112.145 24.642 112.033 24.306 112.033 23.914C112.033 23.41 112.229 22.99 112.621 22.654C112.705 22.57 112.845 22.5 113.041 22.444C113.237 22.36 113.391 22.29 113.503 22.234C114.119 22.038 114.511 21.884 114.679 21.772C115.323 21.38 115.757 20.736 115.981 19.84C116.205 18.776 116.345 18.048 116.401 17.656C116.457 17.04 116.653 16.578 116.989 16.27C117.353 15.934 117.801 15.766 118.333 15.766C119.033 15.766 119.523 15.948 119.803 16.312C120.083 16.676 120.223 17.348 120.223 18.328C120.223 19.616 119.915 20.834 119.299 21.982C119.691 21.982 120.335 21.954 121.231 21.898C122.575 21.842 123.513 21.814 124.045 21.814C124.521 21.814 124.927 21.94 125.263 22.192C125.627 22.416 125.809 22.752 125.809 23.2C125.809 24.264 125.319 24.894 124.339 25.09C123.443 25.342 121.819 25.496 119.467 25.552C119.271 28.296 119.173 30.466 119.173 32.062C119.173 33.042 119.215 33.742 119.299 34.162C119.467 35.03 119.747 35.674 120.139 36.094C120.559 36.486 121.175 36.682 121.987 36.682C122.379 36.682 122.967 36.584 123.751 36.388C124.227 36.248 124.605 36.178 124.885 36.178C125.249 36.178 125.529 36.304 125.725 36.556C125.921 36.808 126.019 37.144 126.019 37.564C126.019 38.32 125.529 38.95 124.549 39.454C123.569 39.93 122.407 40.168 121.063 40.168C120.223 40.168 119.397 39.972 118.585 39.58C117.773 39.16 117.087 38.656 116.527 38.068C116.415 38.012 116.247 37.704 116.023 37.144C115.827 36.584 115.631 35.968 115.435 35.296C115.351 34.96 115.309 34.148 115.309 32.86C115.309 31.628 115.393 29.5 115.561 26.476L115.603 25.552C115.407 25.552 115.043 25.538 114.511 25.51C113.979 25.454 113.587 25.412 113.335 25.384ZM145.046 40.168C144.094 40.168 143.366 40.028 142.862 39.748C142.358 39.44 141.812 38.88 141.224 38.068C140.496 38.712 139.404 39.23 137.948 39.622C136.52 40.014 135.288 40.21 134.252 40.21C132.544 40.21 131.158 39.748 130.094 38.824C129.058 37.872 128.54 36.486 128.54 34.666C128.54 33.882 128.75 33.168 129.17 32.524C129.618 31.852 130.192 31.264 130.892 30.76C131.676 30.228 132.6 29.808 133.664 29.5C134.756 29.192 135.75 29.038 136.646 29.038C138.158 29.038 139.502 29.178 140.678 29.458V29.416C140.678 27.904 140.3 26.868 139.544 26.308C138.816 25.72 137.64 25.426 136.016 25.426C134.98 25.426 134.084 25.888 133.328 26.812C133.048 27.176 132.46 27.358 131.564 27.358C131.116 27.358 130.78 27.176 130.556 26.812C130.36 26.42 130.262 26.028 130.262 25.636C130.262 24.824 130.598 24.124 131.27 23.536C131.97 22.948 132.81 22.514 133.79 22.234C134.77 21.926 135.68 21.772 136.52 21.772C137.332 21.772 138.298 21.94 139.418 22.276C140.538 22.612 141.448 23.06 142.148 23.62C142.988 24.348 143.632 25.202 144.08 26.182C144.556 27.134 144.794 28.184 144.794 29.332C144.794 29.696 144.766 30.242 144.71 30.97C144.654 31.81 144.626 32.496 144.626 33.028C144.626 33.28 144.598 33.602 144.542 33.994C144.486 34.498 144.458 34.918 144.458 35.254C144.458 35.618 144.57 35.968 144.794 36.304C145.018 36.64 145.326 36.92 145.718 37.144C146.082 37.34 146.32 37.55 146.432 37.774C146.544 37.998 146.6 38.25 146.6 38.53C146.6 38.81 146.418 39.16 146.054 39.58C145.718 39.972 145.382 40.168 145.046 40.168ZM136.646 32.146C135.554 32.146 134.588 32.356 133.748 32.776C132.908 33.196 132.488 33.938 132.488 35.002C132.488 35.534 132.67 35.982 133.034 36.346C133.426 36.71 133.846 36.892 134.294 36.892C135.498 36.892 136.506 36.766 137.318 36.514C138.13 36.262 139.11 35.8 140.258 35.128C140.398 34.68 140.482 34.05 140.51 33.238C140.51 32.93 140.524 32.692 140.552 32.524C139.04 32.272 137.738 32.146 136.646 32.146ZM155.638 38.32C155.582 38.796 155.386 39.216 155.05 39.58C154.714 39.944 154.28 40.126 153.748 40.126C152.908 40.126 152.292 39.972 151.9 39.664C151.508 39.328 151.312 38.726 151.312 37.858C151.312 36.682 151.382 35.394 151.522 33.994C151.634 32.37 151.69 31.124 151.69 30.256C151.69 29.808 151.662 29.248 151.606 28.576C151.55 27.96 151.522 27.498 151.522 27.19C151.438 26.714 151.242 26.336 150.934 26.056C150.654 25.776 150.206 25.538 149.59 25.342C149.338 25.23 149.128 25.048 148.96 24.796C148.792 24.516 148.708 24.264 148.708 24.04C148.708 23.396 148.96 22.906 149.464 22.57C149.968 22.234 150.584 22.066 151.312 22.066C152.124 22.066 152.824 22.346 153.412 22.906C154 23.466 154.448 24.166 154.756 25.006C155.4 24.082 156.184 23.34 157.108 22.78C158.06 22.22 158.984 21.94 159.88 21.94C161.028 21.94 161.994 22.136 162.778 22.528C163.59 22.892 163.996 23.536 163.996 24.46C163.996 24.992 163.758 25.552 163.282 26.14C162.834 26.7 162.372 26.98 161.896 26.98C161.532 26.98 161.098 26.812 160.594 26.476C160.398 26.336 160.174 26.224 159.922 26.14C159.698 26.028 159.46 25.972 159.208 25.972C158.76 25.972 158.34 26.042 157.948 26.182C157.556 26.322 157.29 26.49 157.15 26.686C156.702 27.386 156.366 28.016 156.142 28.576C155.946 29.136 155.848 29.738 155.848 30.382C155.848 30.858 155.834 31.236 155.806 31.516L155.764 33.91L155.806 35.506C155.806 36.682 155.75 37.62 155.638 38.32ZM166.536 25.468C166.144 25.412 165.822 25.244 165.57 24.964C165.346 24.684 165.234 24.348 165.234 23.956C165.234 23.76 165.276 23.55 165.36 23.326C165.472 23.102 165.626 22.906 165.822 22.738C166.186 22.374 167.166 22.192 168.762 22.192C168.986 21.1 169.098 19.994 169.098 18.874C169.098 18.454 169.084 18.09 169.056 17.782C169.028 17.474 169.014 17.236 169.014 17.068C169.014 16.452 169.238 15.99 169.686 15.682C170.162 15.374 170.694 15.22 171.282 15.22C172.01 15.22 172.5 15.402 172.752 15.766C173.032 16.13 173.172 16.802 173.172 17.782C173.172 19.238 173.046 20.666 172.794 22.066C173.242 22.066 173.858 22.038 174.642 21.982C175.706 21.926 176.476 21.898 176.952 21.898C177.428 21.898 177.834 22.024 178.17 22.276C178.534 22.5 178.716 22.822 178.716 23.242C178.716 24.334 178.226 24.978 177.246 25.174C176.21 25.426 174.6 25.58 172.416 25.636C172.332 26.728 172.29 27.918 172.29 29.206C172.29 31.222 172.416 32.874 172.668 34.162C172.836 35.058 173.116 35.716 173.508 36.136C173.928 36.528 174.544 36.724 175.356 36.724C175.832 36.724 176.322 36.598 176.826 36.346C177.162 36.15 177.47 36.052 177.75 36.052C178.142 36.052 178.422 36.178 178.59 36.43C178.786 36.682 178.884 37.018 178.884 37.438C178.884 38.222 178.464 38.88 177.624 39.412C176.784 39.916 175.706 40.168 174.39 40.168C173.578 40.168 172.752 39.972 171.912 39.58C171.1 39.188 170.414 38.698 169.854 38.11C169.77 38.026 169.616 37.704 169.392 37.144C169.168 36.584 168.972 35.982 168.804 35.338C168.524 34.022 168.384 32.174 168.384 29.794C168.384 28.758 168.44 27.372 168.552 25.636L166.536 25.468ZM182.033 30.508C182.033 29.5 182.215 28.562 182.579 27.694C182.943 26.798 183.475 25.874 184.175 24.922C184.875 23.97 185.841 23.228 187.073 22.696C188.305 22.136 189.649 21.856 191.105 21.856C192.225 21.856 193.303 22.094 194.339 22.57C195.403 23.018 196.355 23.578 197.195 24.25C197.307 24.446 197.503 24.81 197.783 25.342C198.063 25.846 198.259 26.308 198.371 26.728C198.511 27.148 198.581 27.582 198.581 28.03C198.581 29.906 197.895 31.166 196.523 31.81C195.151 32.426 193.415 32.734 191.315 32.734C189.215 32.734 187.507 32.594 186.191 32.314C186.247 32.846 186.387 33.378 186.611 33.91C186.835 34.442 187.101 34.848 187.409 35.128C187.969 35.66 188.515 36.01 189.047 36.178C189.607 36.318 190.349 36.388 191.273 36.388C192.673 36.388 193.765 36.122 194.549 35.59C195.277 35.114 195.837 34.876 196.229 34.876C196.761 34.876 197.167 35.044 197.447 35.38C197.727 35.688 197.867 36.094 197.867 36.598C197.867 37.662 197.181 38.53 195.809 39.202C194.465 39.874 192.939 40.21 191.231 40.21C189.887 40.21 188.557 39.972 187.241 39.496C185.925 39.02 184.875 38.348 184.091 37.48C183.559 36.584 183.083 35.492 182.663 34.204C182.243 32.916 182.033 31.684 182.033 30.508ZM191.273 25.3C190.657 25.3 190.013 25.412 189.341 25.636C188.697 25.832 188.193 26.14 187.829 26.56C187.381 27.036 187.045 27.47 186.821 27.862C186.625 28.254 186.499 28.744 186.443 29.332C186.751 29.332 187.045 29.346 187.325 29.374C187.605 29.402 187.871 29.43 188.123 29.458C189.355 29.57 190.279 29.626 190.895 29.626C192.127 29.626 193.065 29.444 193.709 29.08C194.381 28.716 194.717 28.226 194.717 27.61C194.717 27.022 194.339 26.49 193.583 26.014C192.855 25.538 192.085 25.3 191.273 25.3ZM220.06 39.79C219.472 39.79 218.912 39.622 218.38 39.286C217.876 38.922 217.428 38.544 217.036 38.152C216.644 37.732 216.378 37.452 216.238 37.312C215.65 38.152 214.796 38.838 213.676 39.37C212.556 39.902 211.478 40.168 210.442 40.168C208.846 40.168 207.432 39.832 206.2 39.16C204.968 38.488 204.016 37.578 203.344 36.43C202.672 35.254 202.336 33.952 202.336 32.524C202.336 31.18 202.49 29.892 202.798 28.66C203.134 27.4 203.582 26.35 204.142 25.51C204.898 24.446 205.906 23.606 207.166 22.99C208.454 22.374 209.728 22.066 210.988 22.066C211.744 22.066 212.458 22.206 213.13 22.486C213.802 22.766 214.39 23.116 214.894 23.536C214.894 21.688 214.88 20.526 214.852 20.05V19.126C214.852 16.494 215.02 14.576 215.356 13.372C215.664 12.196 216.42 11.608 217.624 11.608C218.268 11.608 218.744 11.748 219.052 12.028C219.36 12.308 219.514 12.84 219.514 13.624C219.514 13.904 219.444 14.674 219.304 15.934C218.996 19.07 218.842 22.206 218.842 25.342C218.842 27.974 218.884 29.934 218.968 31.222C219.08 32.482 219.29 33.49 219.598 34.246C219.934 35.002 220.452 35.674 221.152 36.262C221.572 36.598 221.866 36.878 222.034 37.102C222.23 37.326 222.328 37.62 222.328 37.984C222.328 38.432 222.104 38.852 221.656 39.244C221.208 39.608 220.676 39.79 220.06 39.79ZM210.316 36.766C211.8 36.766 212.892 36.304 213.592 35.38C214.32 34.428 214.684 33.224 214.684 31.768L214.642 29.416C214.614 28.968 214.6 28.366 214.6 27.61C213.564 26.378 212.444 25.762 211.24 25.762C210.428 25.762 209.658 25.972 208.93 26.392C208.23 26.812 207.656 27.428 207.208 28.24C206.732 29.164 206.494 30.564 206.494 32.44C206.494 33.728 206.872 34.778 207.628 35.59C208.384 36.374 209.28 36.766 210.316 36.766Z" fill="#FEFEFE"/>
<rect x="91" y="48" width="134" height="5" rx="2.5" fill="#FDB623"/>
</svg>
