<svg width="428" height="926" viewBox="0 0 428 926" fill="none" xmlns="http://www.w3.org/2000/svg">
<g clip-path="url(#clip0_4_609)">
<rect width="428" height="926" fill="#333333"/>
<rect width="428" height="926" rx="30" fill="#333333"/>
<path fill-rule="evenodd" clip-rule="evenodd" d="M428 0H0V562.615C0 615.634 42.9807 658.615 96 658.615H304V691C304 744.019 346.981 787 400 787H428V658.615V593.139V0Z" fill="#FDB623"/>
<path d="M0 658H332C385.019 658 428 700.981 428 754V926H0V658Z" fill="#333333"/>
<g clip-path="url(#clip1_4_609)">
<path d="M114 232.25C114 230.592 114.658 229.003 115.831 227.831C117.003 226.658 118.592 226 120.25 226H157.75C159.408 226 160.997 226.658 162.169 227.831C163.342 229.003 164 230.592 164 232.25C164 233.908 163.342 235.497 162.169 236.669C160.997 237.842 159.408 238.5 157.75 238.5H147.5C135.902 238.5 126.5 247.902 126.5 259.5V269.75C126.5 271.408 125.842 272.997 124.669 274.169C123.497 275.342 121.908 276 120.25 276C118.592 276 117.003 275.342 115.831 274.169C114.658 272.997 114 271.408 114 269.75V232.25ZM264 232.25C264 230.592 264.658 229.003 265.831 227.831C267.003 226.658 268.592 226 270.25 226H307.75C309.408 226 310.997 226.658 312.169 227.831C313.342 229.003 314 230.592 314 232.25V269.75C314 271.408 313.342 272.997 312.169 274.169C310.997 275.342 309.408 276 307.75 276C306.092 276 304.503 275.342 303.331 274.169C302.158 272.997 301.5 271.408 301.5 269.75V259.5C301.5 247.902 292.098 238.5 280.5 238.5H270.25C268.592 238.5 267.003 237.842 265.831 236.669C264.658 235.497 264 233.908 264 232.25ZM120.25 376C121.908 376 123.497 376.658 124.669 377.831C125.842 379.003 126.5 380.592 126.5 382.25V392.5C126.5 404.098 135.902 413.5 147.5 413.5H157.75C159.408 413.5 160.997 414.158 162.169 415.331C163.342 416.503 164 418.092 164 419.75C164 421.408 163.342 422.997 162.169 424.169C160.997 425.342 159.408 426 157.75 426H120.25C118.592 426 117.003 425.342 115.831 424.169C114.658 422.997 114 421.408 114 419.75V382.25C114 380.592 114.658 379.003 115.831 377.831C117.003 376.658 118.592 376 120.25 376ZM307.75 376C309.408 376 310.997 376.658 312.169 377.831C313.342 379.003 314 380.592 314 382.25V419.75C314 421.408 313.342 422.997 312.169 424.169C310.997 425.342 309.408 426 307.75 426H270.25C268.592 426 267.003 425.342 265.831 424.169C264.658 422.997 264 421.408 264 419.75C264 418.092 264.658 416.503 265.831 415.331C267.003 414.158 268.592 413.5 270.25 413.5H280.5C292.098 413.5 301.5 404.098 301.5 392.5V382.25C301.5 380.592 302.158 379.003 303.331 377.831C304.503 376.658 306.092 376 307.75 376ZM164 282.25C164 278.798 166.798 276 170.25 276C173.702 276 176.5 278.798 176.5 282.25C176.5 285.702 173.702 288.5 170.25 288.5C166.798 288.5 164 285.702 164 282.25Z" fill="#333333"/>
<path d="M201.5 251H139V313.5H201.5V251ZM151.5 263.5H189V301H151.5V263.5ZM176.5 363.5H164V376H176.5V363.5Z" fill="white"/>
<path d="M201.5 338.5H139V401H201.5V338.5ZM151.5 351H189V388.5H151.5V351ZM251.5 276H264V288.5H251.5V276Z" fill="white"/>
<path d="M226.5 251H289V313.5H226.5V251ZM239 263.5V301H276.5V263.5H239ZM214 326V351H226.5V363.5H214V376H239V351H251.5V376H264V363.5H289V351H251.5V326H214ZM239 351H226.5V338.5H239V351ZM289 376H276.5V388.5H251.5V401H289V376ZM239 401V388.5H214V401H239Z" fill="white"/>
<path d="M264 338.5H289V326H264V338.5Z" fill="white"/>
<circle cx="170.111" cy="282.111" r="7.22222" fill="white"/>
<path d="M117.889 326L311.778 324.333" stroke="#333333" stroke-width="7" stroke-linecap="round" stroke-linejoin="round"/>
</g>
</g>
<defs>
<clipPath id="clip0_4_609">
<rect width="428" height="926" fill="white"/>
</clipPath>
<clipPath id="clip1_4_609">
<rect width="200" height="200" fill="white" transform="translate(114 226)"/>
</clipPath>
</defs>
</svg>
